:SAMPLES-PER-SECOND 30
:FULLY-SPECIFIED
:DEGREES
1417
root  -24.219 38.9392 23.4247 178.619 -1.63838 172.206
RightUpLeg  -3.77192 -0.0327016 -0.37913
RightLeg  1.93064 -68.2778 -7.51681
RightFoot  -8.9831 -35.2094 171.519
RightToes  -6.98493e-010 0 -3.6325e-017
Spine  7.79534 -1.91115 -6.05523
Spine1  10.2148 -0.911341 -5.80007
HEad  41.8381 -21.4847 -131.299
LeftShoulder1  0.0279067 3.42133 -27.1863
LeftArm  -19.6566 13.569 -30.998
LeftForeArm  97.7389 -77.8262 -116.451
LeftHand  -0.0625384 1.38851 1.62643
RightShoulder  -0.267426 -4.3595 23.9966
RightArm  -4.04522 1.51453 41.2457
RightForeArm  75.9066 78.5117 101.99
RightHand  -0.0798169 -0.285839 -1.79801
LeftUpLeg  -9.19033 8.95084 -2.41153
LeftLeg  19.4264 14.2921 1.53937
LeftFoot  -10.0094 0.120098 -5.18567
LeftToes  7.91257e-010 -1.64976e-010 -3.02228e-011
1418
root  -24.7791 38.8987 23.3437 177.892 -2.91676 171.317
RightUpLeg  -3.98198 4.10218 -2.12038
RightLeg  -24.8427 -80.7712 18.9383
RightFoot  -7.32529 -45.0312 172.329
RightToes  -6.98493e-010 0 -3.6325e-017
Spine  8.42411 -2.49578 -3.90461
Spine1  10.3059 -1.08275 -7.61575
HEad  42.2978 -20.2691 -132.699
LeftShoulder1  0.104383 3.19367 -27.5325
LeftArm  -19.9991 13.3148 -31.7995
LeftForeArm  93.1709 -78.3006 -111.424
LeftHand  -0.0242272 0.955649 0.502839
RightShoulder  -0.297867 -4.46136 23.9512
RightArm  -4.50409 1.34842 40.5785
RightForeArm  82.6855 78.217 108.065
RightHand  -0.0569497 -0.837888 -1.3049
LeftUpLeg  -8.46831 8.0802 -4.31351
LeftLeg  19.98 14.2643 1.71707
LeftFoot  -11.0675 0.0786601 -5.00598
LeftToes  7.91257e-010 -1.64976e-010 -3.02228e-011
1419
root  -25.3726 38.8875 23.2993 177.492 -4.53659 171.294
RightUpLeg  -4.32451 2.81006 -3.55905
RightLeg  151.713 -63.9427 -158.658
RightFoot  -17.1296 -77.3235 -173.925
RightToes  -6.98493e-010 0 -3.6325e-017
Spine  8.87529 -3.16579 -0.690947
Spine1  10.2387 -1.43746 -8.53473
HEad  42.7827 -17.7648 -136.796
LeftShoulder1  0.0890599 3.24547 -28.2708
LeftArm  -19.5623 12.6921 -32.8801
LeftForeArm  88.9969 -78.699 -106.204
LeftHand  0.00880204 0.799554 -0.328921
RightShoulder  -0.314625 -4.52705 23.6363
RightArm  -5.34029 1.04822 39.2461
RightForeArm  90.2401 77.7133 114.808
RightHand  -0.0186658 -1.12604 -0.307621
LeftUpLeg  -8.62033 9.35465 -5.6538
LeftLeg  21.3015 11.6063 1.84452
LeftFoot  -12.22 0.0415947 -4.31493
LeftToes  7.91257e-010 -1.64976e-010 -3.02228e-011
1420
root  -25.8535 38.7825 23.2374 177.205 -6.12184 172.148
RightUpLeg  -4.71148 2.22066 -3.82425
RightLeg  169.139 -37.1806 -177.611
RightFoot  159.589 -77.612 11.9177
RightToes  -6.98493e-010 0 -3.6325e-017
Spine  8.81815 -3.42058 2.12283
Spine1  10.3811 -1.74791 -7.86959
HEad  39.3008 -21.6126 -138.455
LeftShoulder1  0.071762 3.29642 -28.6975
LeftArm  -18.1668 11.9148 -33.9737
LeftForeArm  84.4256 -78.8762 -102.055
LeftHand  -0.0625107 1.22795 1.5763
RightShoulder  -0.257568 -4.35704 22.8818
RightArm  -6.22122 0.544139 37.8181
RightForeArm  93.4368 77.0623 119.9
RightHand  -0.0686021 -0.930838 -1.63319
LeftUpLeg  -9.87654 14.2885 -6.01382
LeftLeg  24.4429 4.78906 1.60433
LeftFoot  -14.0564 -0.0235398 -4.43289
LeftToes  7.91257e-010 -1.64976e-010 -3.02228e-011
1421
root  -26.2437 38.6768 23.1766 176.995 -7.91838 172.835
RightUpLeg  -4.52405 0.391729 -3.83674
RightLeg  165.028 -49.3691 -173.041
RightFoot  -122.382 -88.163 -66.5189
RightToes  -6.98493e-010 0 -3.6325e-017
Spine  8.74617 -3.3285 2.69978
Spine1  10.4858 -2.39085 -4.98784
HEad  36.7845 -21.5587 -139.862
LeftShoulder1  -0.0374128 3.60959 -29.5158
LeftArm  -16.6296 10.5766 -34.321
LeftForeArm  79.1286 -79.08 -96.1681
LeftHand  -0.0285611 1.05908 0.620194
RightShoulder  -0.195524 -4.15637 22.4016
RightArm  -7.26001 0.25136 35.7406
RightForeArm  97.5603 76.5631 123.654
RightHand  -0.0164874 -1.56202 -0.273306
LeftUpLeg  -11.384 16.0881 -5.78386
LeftLeg  28.2075 -0.0565363 0.453165
LeftFoot  -15.3787 -0.155612 -7.01
LeftToes  7.91257e-010 -1.64976e-010 -3.02228e-011
1422
root  -26.6181 38.5901 23.122 176.419 -9.01222 172.887
RightUpLeg  -4.45023 2.30334 -4.72191
RightLeg  165.17 -29.9709 -175.62
RightFoot  -176.229 -72.546 -11.031
RightToes  -6.98493e-010 0 -3.6325e-017
Spine  9.10883 -3.2308 3.27874
Spine1  10.6218 -2.39574 -4.58059
HEad  32.6407 -22.8152 -138.138
LeftShoulder1  -0.0448528 3.63023 -29.2768
LeftArm  -15.3944 9.54663 -35.1462
LeftForeArm  73.0607 -79.1491 -89.8826
LeftHand  -0.0518504 1.01867 1.243
RightShoulder  -0.283983 -4.45053 22.8276
RightArm  -7.74962 0.574011 34.6923
RightForeArm  98.0526 76.4251 124.444
RightHand  -0.0165924 -1.25933 -0.278469
LeftUpLeg  -12.4414 16.2816 -5.16644
LeftLeg  32.2461 -2.78195 -1.50072
LeftFoot  -16.2978 -0.341607 -10.1411
LeftToes  7.91257e-010 -1.64976e-010 -3.02228e-011
1423
root  -27.0036 38.5846 23.048 176.102 -10.4643 172.614
RightUpLeg  -3.94289 4.06303 -5.79288
RightLeg  167.047 6.62762 176.924
RightFoot  177.486 -38.4658 -2.57502
RightToes  -6.98493e-010 0 -3.6325e-017
Spine  8.9885 -3.45489 3.5414
Spine1  10.8395 -2.61599 -4.84125
HEad  26.9113 -25.311 -133.942
LeftShoulder1  0.0532214 3.35294 -29.0996
LeftArm  -14.964 8.78166 -35.696
LeftForeArm  65.0969 -79.0374 -81.9869
LeftHand  -0.0632642 0.853163 1.51949
RightShoulder  -0.27287 -4.40895 22.8976
RightArm  -8.43403 -0.0660719 35.2923
RightForeArm  99.0318 76.4148 124.721
RightHand  -0.0244313 -1.77663 -0.477863
LeftUpLeg  -13.5479 16.2346 -4.63693
LeftLeg  35.6575 -3.54494 -2.32767
LeftFoot  -17.1992 -0.439566 -10.5866
LeftToes  7.91257e-010 -1.64976e-010 -3.02228e-011
1424
root  -27.3396 38.6537 22.9801 175.948 -11.9546 172.259
RightUpLeg  -2.68023 2.40218 -6.57177
RightLeg  166.881 23.9025 173.022
RightFoot  176.173 -20.5229 -0.595017
RightToes  -6.98493e-010 0 -3.6325e-017
Spine  8.85754 -3.36169 2.9048
Spine1  10.9883 -2.75862 -4.26931
HEad  29.0656 -18.1959 -156.057
LeftShoulder1  0.116568 3.17296 -29.0861
LeftArm  -14.6174 7.68126 -36.0071
LeftForeArm  56.6318 -78.6841 -73.2337
LeftHand  -0.0341899 0.941405 0.766901
RightShoulder  -0.34489 -4.63554 23.4433
RightArm  -8.56903 -0.596155 35.2573
RightForeArm  100.478 76.2421 125.87
RightHand  -0.0327873 -1.8006 -0.763295
LeftUpLeg  -14.4656 16.4941 -3.47539
LeftLeg  37.6671 -2.92834 -2.02335
LeftFoot  -16.7048 -0.348155 -9.54193
LeftToes  7.91257e-010 -1.64976e-010 -3.02228e-011
1425
root  -27.7599 38.7533 22.9262 176.273 -12.9911 171.875
RightUpLeg  -1.79603 -0.717203 -7.53328
RightLeg  166.311 42.5206 168.588
RightFoot  175.332 0.471128 0.802197
RightToes  -6.98493e-010 0 -3.6325e-017
Spine  8.30262 -3.23374 2.86991
Spine1  11.2574 -2.57197 -4.53919
HEad  52.9054 13.544 114.496
LeftShoulder1  0.0882771 3.25181 -28.9023
LeftArm  -14.6151 6.72407 -36.775
LeftForeArm  50.7363 -78.2533 -66.9121
LeftHand  -0.0251804 1.12474 0.526412
RightShoulder  -0.339099 -4.62266 23.2561
RightArm  -8.52863 -1.2366 35.6568
RightForeArm  101.009 76.1737 126.303
RightHand  -0.0377094 -1.60107 -0.835745
LeftUpLeg  -15.2914 16.3783 -2.18209
LeftLeg  37.6645 -1.66814 -0.986032
LeftFoot  -16.068 -0.259007 -8.59367
LeftToes  7.91257e-010 -1.64976e-010 -3.02228e-011
1426
root  -28.2412 38.8355 22.8909 176.407 -14.3801 171.597
RightUpLeg  -0.654468 -4.77279 -8.69918
RightLeg  166.242 54.0139 166.204
RightFoot  174.663 14.7478 1.56171
RightToes  -6.98493e-010 0 -3.6325e-017
Spine  8.48181 -3.36045 3.09996
Spine1  10.9181 -2.51614 -5.18255
HEad  55.504 8.66482 118.685
LeftShoulder1  0.101403 3.21376 -28.831
LeftArm  -14.595 6.15897 -36.6339
LeftForeArm  47.9392 -77.985 -63.9588
LeftHand  -0.0344156 1.02991 0.786905
RightShoulder  -0.337334 -4.61705 23.2312
RightArm  -8.33893 -1.4915 36.012
RightForeArm  99.8643 76.1194 126.29
RightHand  -0.0944008 -1.11888 -2.45644
LeftUpLeg  -15.7255 15.6098 -0.597919
LeftLeg  36.4109 -0.909514 -0.324661
LeftFoot  -15.5993 -0.194524 -7.73585
LeftToes  7.91257e-010 -1.64976e-010 -3.02228e-011
